<svg width="48" height="48" viewBox="0 0 48 48" fill="none" xmlns="http://www.w3.org/2000/svg">
<path d="M12.5 17C12.5 15.6193 13.6193 14.5 15 14.5H19C20.3807 14.5 21.5 15.6193 21.5 17V21C21.5 22.3807 20.3807 23.5 19 23.5H15C13.6193 23.5 12.5 22.3807 12.5 21V17Z" stroke="#FF4F0C" stroke-width="3"/>
<path d="M26.5 17C26.5 15.6193 27.6193 14.5 29 14.5H33C34.3807 14.5 35.5 15.6193 35.5 17V21C35.5 22.3807 34.3807 23.5 33 23.5H29C27.6193 23.5 26.5 22.3807 26.5 21V17Z" stroke="#FF4F0C" stroke-width="3"/>
<path d="M7.5 10C7.5 5.30558 11.3056 1.5 16 1.5H32C36.6944 1.5 40.5 5.30558 40.5 10V23.5H7.5V10Z" stroke="#152C5B" stroke-width="3"/>
<mask id="path-4-inside-1" fill="white">
<path d="M0 27C0 24.7909 1.79086 23 4 23H44C46.2091 23 48 24.7909 48 27V35C48 36.1046 47.1046 37 46 37H2C0.895431 37 0 36.1046 0 35V27Z"/>
</mask>
<path d="M0 27C0 24.7909 1.79086 23 4 23H44C46.2091 23 48 24.7909 48 27V35C48 36.1046 47.1046 37 46 37H2C0.895431 37 0 36.1046 0 35V27Z" stroke="#152C5B" stroke-width="6" mask="url(#path-4-inside-1)"/>
<line x1="4.5" y1="37.5" x2="4.5" y2="44.5" stroke="#152C5B" stroke-width="3" stroke-linecap="round"/>
<line x1="41.5" y1="40.5" x2="5.5" y2="40.5" stroke="#152C5B" stroke-width="3" stroke-linecap="round"/>
<line x1="43.5" y1="37.5" x2="43.5" y2="44.5" stroke="#152C5B" stroke-width="3" stroke-linecap="round"/>
</svg>
