<svg width="48" height="48" viewBox="0 0 48 48" fill="none" xmlns="http://www.w3.org/2000/svg">
<path d="M5.50715 12C5.50468 10.6193 6.62197 9.5 8.00268 9.5L40.0027 9.5C41.3834 9.5 42.5047 10.6193 42.5071 12L42.5375 29C42.54 30.3807 41.4227 31.5 40.042 31.5L8.04198 31.5C6.66127 31.5 5.53998 30.3807 5.53751 29L5.50715 12Z" stroke="#152C5B" stroke-width="3"/>
<line x1="1.5" y1="-1.5" x2="8.5" y2="-1.5" transform="matrix(-0.00423595 0.999991 -0.999999 -0.00134653 19.0424 30)" stroke="#152C5B" stroke-width="3" stroke-linecap="round"/>
<line x1="29.536" y1="31.5063" x2="29.5063" y2="38.5064" stroke="#152C5B" stroke-width="3" stroke-linecap="round"/>
<line x1="13.5" y1="39.5" x2="36.5" y2="39.5" stroke="#152C5B" stroke-width="3" stroke-linecap="round"/>
<path d="M28.5 20.866C28.8094 20.6874 29 20.3573 29 20C29 19.6427 28.8094 19.3126 28.5 19.134L22.5 15.6699C22.1906 15.4912 21.8094 15.4912 21.5 15.6699C21.1906 15.8485 21 16.1786 21 16.5359V23.4641C21 23.8214 21.1906 24.1515 21.5 24.3301C21.8094 24.5088 22.1906 24.5088 22.5 24.3301L28.5 20.866Z" stroke="#FF4F0C" stroke-width="2" stroke-linejoin="round"/>
</svg>
