<svg width="48" height="48" viewBox="0 0 48 48" fill="none" xmlns="http://www.w3.org/2000/svg">
<g clip-path="url(#clip0)">
<mask id="path-1-inside-1" fill="white">
<path d="M37.1146 0.0363612C39.3237 0.040021 41.1084 1.83384 41.1008 4.04296L40.9631 44.043C40.9555 46.2521 39.1585 48.04 36.9493 48.0364L11.0236 47.9934C9.91903 47.9916 9.02669 47.0947 9.03049 45.9901L9.18199 1.99009C9.18579 0.885525 10.0843 -0.00841846 11.1889 -0.00658858L37.1146 0.0363612Z"/>
</mask>
<path d="M37.1146 0.0363612C39.3237 0.040021 41.1084 1.83384 41.1008 4.04296L40.9631 44.043C40.9555 46.2521 39.1585 48.04 36.9493 48.0364L11.0236 47.9934C9.91903 47.9916 9.02669 47.0947 9.03049 45.9901L9.18199 1.99009C9.18579 0.885525 10.0843 -0.00841846 11.1889 -0.00658858L37.1146 0.0363612Z" stroke="#152C5B" stroke-width="6" mask="url(#path-1-inside-1)"/>
<line x1="1.5" y1="-1.5" x2="43.5" y2="-1.5" transform="matrix(0.00423595 -0.999991 0.999999 0.00134653 23.1832 46.019)" stroke="#152C5B" stroke-width="3" stroke-linecap="round"/>
<line x1="1.5" y1="-1.5" x2="9.5" y2="-1.5" transform="matrix(-0.00423595 0.999991 -0.999999 -0.00134653 33.0466 19)" stroke="#FF4F0C" stroke-width="3" stroke-linecap="round"/>
</g>
<defs>
<clipPath id="clip0">
<rect width="48" height="48" fill="white"/>
</clipPath>
</defs>
</svg>
