<svg width="48" height="48" viewBox="0 0 48 48" fill="none" xmlns="http://www.w3.org/2000/svg">
<mask id="path-1-inside-1" fill="white">
<path d="M0 13C0 10.7909 1.79086 9 4 9H44C46.2091 9 48 10.7909 48 13V25C48 26.1046 47.1046 27 46 27H2C0.895431 27 0 26.1046 0 25V13Z"/>
</mask>
<path d="M0 13C0 10.7909 1.79086 9 4 9H44C46.2091 9 48 10.7909 48 13V25C48 26.1046 47.1046 27 46 27H2C0.895431 27 0 26.1046 0 25V13Z" stroke="#152C5B" stroke-width="6" mask="url(#path-1-inside-1)"/>
<line x1="44.5" y1="20.5" x2="2.5" y2="20.5" stroke="#152C5B" stroke-width="3" stroke-linecap="round"/>
<path d="M41 30C36.963 35.3159 37.0372 38.3773 41 44" stroke="#152C5B" stroke-width="3" stroke-linecap="round"/>
<path d="M7 30C11.037 35.3159 10.9628 38.3773 7 44" stroke="#152C5B" stroke-width="3" stroke-linecap="round"/>
<path d="M35 30C30.963 35.3159 31.0372 38.3773 35 44" stroke="#152C5B" stroke-width="3" stroke-linecap="round"/>
<path d="M13 30C17.037 35.3159 16.9628 38.3773 13 44" stroke="#152C5B" stroke-width="3" stroke-linecap="round"/>
<line x1="20.5" y1="15.5" x2="28.5" y2="15.5" stroke="#FF4F0C" stroke-width="3" stroke-linecap="round"/>
</svg>
