<svg width="48" height="48" viewBox="0 0 48 48" fill="none" xmlns="http://www.w3.org/2000/svg">
<path d="M37.5823 40C37.5823 41.3197 36.5276 42.8818 33.9951 44.2028C31.5353 45.4859 28.033 46.3245 24.0823 46.3245C20.1316 46.3245 16.6293 45.4859 14.1694 44.2028C11.6369 42.8818 10.5823 41.3197 10.5823 40C10.5823 38.656 11.6679 37.008 14.2025 35.6039C16.6626 34.2411 20.1551 33.3245 24.0823 33.3245C28.0094 33.3245 31.502 34.2411 33.962 35.6039C36.4967 37.008 37.5823 38.656 37.5823 40Z" stroke="#152C5B" stroke-width="3"/>
<path d="M36.5 13.0326C36.5 16.3561 35.0086 22.8877 32.5233 28.6187C31.2871 31.4694 29.8487 34.017 28.3077 35.8257C26.7349 37.6717 25.2737 38.5 24 38.5C22.7263 38.5 21.2651 37.6717 19.6923 35.8257C18.1513 34.017 16.7129 31.4694 15.4767 28.6187C12.9914 22.8877 11.5 16.3561 11.5 13.0326C11.5 6.76267 16.9935 1.5 24 1.5C31.0065 1.5 36.5 6.76267 36.5 13.0326Z" stroke="#152C5B" stroke-width="3"/>
<path d="M28.5 12.973C28.5 15.8392 26.3773 17.9595 24 17.9595C21.6227 17.9595 19.5 15.8392 19.5 12.973C19.5 10.1067 21.6227 7.98648 24 7.98648C26.3773 7.98648 28.5 10.1067 28.5 12.973Z" stroke="#FF4F0C" stroke-width="3"/>
</svg>
