<svg width="48" height="48" viewBox="0 0 48 48" fill="none" xmlns="http://www.w3.org/2000/svg">
<mask id="path-1-inside-1" fill="white">
<path fill-rule="evenodd" clip-rule="evenodd" d="M18.102 7C17.3062 7 16.5862 7.47174 16.2684 8.20128L14.6136 12H8C3.58172 12 0 15.5817 0 20V30C0 34.4183 3.58172 38 8 38H40C44.4183 38 48 34.4183 48 30V20C48 15.5817 44.4183 12 40 12H32.125L30.2734 8.13576C29.9408 7.44166 29.2394 7 28.4698 7H18.102Z"/>
</mask>
<path d="M16.2684 8.20128L13.518 7.00319L13.518 7.0032L16.2684 8.20128ZM14.6136 12V15H16.5791L17.364 13.1981L14.6136 12ZM32.125 12L29.4196 13.2964L30.2359 15H32.125V12ZM30.2734 8.13576L27.5679 9.43212V9.43212L30.2734 8.13576ZM19.0188 9.39937C18.8599 9.76413 18.4998 10 18.102 10V4C16.1126 4 14.3125 5.17935 13.518 7.00319L19.0188 9.39937ZM17.364 13.1981L19.0188 9.39936L13.518 7.0032L11.8633 10.8019L17.364 13.1981ZM8 15H14.6136V9H8V15ZM3 20C3 17.2386 5.23858 15 8 15V9C1.92487 9 -3 13.9249 -3 20H3ZM3 30V20H-3V30H3ZM8 35C5.23858 35 3 32.7614 3 30H-3C-3 36.0751 1.92487 41 8 41V35ZM40 35H8V41H40V35ZM45 30C45 32.7614 42.7614 35 40 35V41C46.0751 41 51 36.0751 51 30H45ZM45 20V30H51V20H45ZM40 15C42.7614 15 45 17.2386 45 20H51C51 13.9249 46.0751 9 40 9V15ZM32.125 15H40V9H32.125V15ZM27.5679 9.43212L29.4196 13.2964L34.8304 10.7036L32.9788 6.8394L27.5679 9.43212ZM28.4698 10C28.0849 10 27.7342 9.77917 27.5679 9.43212L32.9788 6.8394C32.1474 5.10416 30.3939 4 28.4698 4V10ZM18.102 10H28.4698V4H18.102V10Z" fill="#152C5B" mask="url(#path-1-inside-1)"/>
<circle cx="24" cy="24" r="6.5" stroke="#FF4F0C" stroke-width="3"/>
<line x1="35.5" y1="18.5" x2="40.5" y2="18.5" stroke="#152C5B" stroke-width="3" stroke-linecap="round"/>
</svg>
