<svg width="48" height="48" viewBox="0 0 48 48" fill="none" xmlns="http://www.w3.org/2000/svg">
<g clip-path="url(#clip0)">
<path d="M6.83489 20.7859C7.27581 19.9922 8.11236 19.5 9.02028 19.5H40.0672C41.0551 19.5 41.9505 20.0818 42.3517 20.9847L44.1295 24.9847C44.8642 26.6379 43.6541 28.5 41.845 28.5H6.79806C4.89185 28.5 3.68693 26.4522 4.61266 24.7859L6.83489 20.7859Z" stroke="#152C5B" stroke-width="3"/>
<path d="M8.5 29.5L8.5 44C8.5 45.3807 9.61929 46.5 11 46.5C12.3807 46.5 13.5 45.3807 13.5 44V29.5H8.5Z" stroke="#152C5B" stroke-width="3"/>
<path d="M35.5 29.5V44C35.5 45.3807 36.6193 46.5 38 46.5C39.3807 46.5 40.5 45.3807 40.5 44V29.5H35.5Z" stroke="#152C5B" stroke-width="3"/>
<line x1="24.5" y1="0.5" x2="24.5" y2="3.5" stroke="#FF4F0C" stroke-width="3" stroke-linecap="round"/>
<path d="M31.5 9.66078C31.5 10.3123 31.3382 10.5931 31.2101 10.7374C31.0595 10.9071 30.7649 11.1004 30.1571 11.2477C29.5471 11.3955 28.7601 11.4644 27.772 11.4886C27.1079 11.5048 26.4137 11.5005 25.6632 11.4959C25.2904 11.4936 24.9037 11.4912 24.5 11.4912C24.0963 11.4912 23.7096 11.4936 23.3368 11.4959C22.5863 11.5005 21.8921 11.5048 21.228 11.4886C20.2399 11.4644 19.4529 11.3955 18.8429 11.2477C18.2351 11.1004 17.9405 10.9071 17.7899 10.7374C17.6618 10.5931 17.5 10.3123 17.5 9.66078C17.5 7.13061 20.2728 4.5 24.5 4.5C28.7272 4.5 31.5 7.13061 31.5 9.66078Z" stroke="#FF4F0C" stroke-width="3"/>
</g>
<defs>
<clipPath id="clip0">
<rect width="48" height="48" fill="white"/>
</clipPath>
</defs>
</svg>
